P3
# issu de chien.ppm
51 51
255
 114  100   91  113  100   83  130  113   97  152  139  133  148  148  138 
 149  150  136  157  148  143  158  150  147  155  155  143  143  152  125 
 127  135  111   90   92   81   56   57   43   61   64   53   52   56   68 
  55   57   33   64   66   55   63   66   59   49   55   41   37   42   36 
  42   43   48   53   51   56   57   53   52   53   55   44   50   51   37 
  52   51   46   54   55   49   43   45   31   51   54   47   49   54   60 
  42   47   50   33   38   31   41   41   43   45   41   42   39   34   40 
  46   46   36   42   44   33   38   41   24   47   44   35   36   38   17 
  43   43   33   52   50   51   42   41   47   45   44   49   35   35   33 
  36   37   31   33   34   26   26   17   38   24   15   18   42   28   17 
  56   39   23  109  112   85  109  107   94  126  120  108  143  146  117 
 139  152  126  140  150  139  146  148  135  151  154  137  146  153  137 
 139  151  131  122  129  121   75   76   81   41   43   40   57   67   58 
  63   74   80   76   65   61   68   58   66   54   53   58   45   50   43 
  52   54   49   59   55   56   58   46   46   63   46   39   60   61   63 
  50   52   51   47   49   46   48   50   49   41   43   40   50   55   48 
  51   57   53   40   44   53   37   41   42   35   36   30   39   35   36 
  34   31   22   37   35   40   41   42   34   43   44   38   43   42   24 
  38   45   38   31   39   26   39   46   30   39   41   30   38   34   33 
  38   32   36   48   39   40   43   34   29   30   27   18   26   29   22 
  27   29   15   29   19   10  110  110   98  105  102   83  119  114   84 
 142  140  115  140  146  132  144  147  140  153  149  140  150  148  135 
 139  139  127  129  132  113  109  112   93   80   82   71   65   70   50 
  72   87   58   67   85   69   57   70   52   53   67   41   46   56   45 
  42   47   40   52   57   35   56   59   50   54   54   56   62   65   46 
  68   76   61   47   51   54   50   52   47   56   61   39   43   47   30 
  40   44   27   42   50   29   46   52   38   39   44   40   37   38   33 
  39   36   29   32   28   25   30   29   27   35   35   35   39   39   31 
  37   35   23   35   34   32   40   39   34   40   40   28   36   37   21 
  42   40   25   47   44   35   42   38   37   30   25   31   33   25   36 
  25   22   17   26   17   22   35   20   23  114  109  115  107  101   87 
 119  111   74  147  139  116  146  145  140  139  138  133  145  136  129 
 125  138  118  116  124  109  104  107   86   88   86   63   77   68   53 
  70   59   39   69   60   31   60   52   33   49   65   55   59   66   72 
  56   54   55   48   41   35   47   36   42   49   41   39   54   52   40 
  61   62   56   65   69   70   48   50   49   50   51   45   47   46   41 
  41   40   35   47   48   30   48   51   32   44   44   44   31   37   25 
  35   34   32   35   30   27   33   26   33   36   36   24   38   39   34 
  37   37   29   39   35   36   44   36   33   45   40   36   38   33   27 
  34   32   19   38   37   17   41   42   26   39   38   33   42   40   43 
  35   29   15   37   33   24   36   25   21   31   14   32  112  118  108 
 108  106  107  115  107   94  133  133   99  134  142  119  123  129  117 
 117  117   89  113  112   82   82   76   64   62   53   46   57   48   43 
  57   50   57   58   56   57   65   67   54   64   67   56   65   74   55 
  66   72   62   51   58   40   48   51   32   47   47   39   50   48   35 
  60   57   38   58   51   45   61   60   55   49   48   46   54   49   53 
  40   35   29   37   34   17   45   40   34   46   40   44   40   37   32 
  44   47   38   40   39   34   33   26   33   36   31   25   40   39   37 
  39   41   28   34   33   31   32   28   29   27   30   23   33   36   25 
  37   39   25   37   35   22   29   24   18   39   31   28   43   34   27 
  39   29   19   38   31   21   44   53   22   42   50   35   35   30   26 
 108  109  101  109  107   86  113  105   66  112  110   62  108  113   81 
  97  101   84   78   75   60   65   70   47   50   51   46   57   56   51 
  61   65   51   52   58   54   49   60   56   61   71   60   59   67   56 
  52   67   60   48   64   37   43   54   40   51   56   59   52   58   48 
  53   55   50   57   59   71   46   50   53   49   45   42   48   45   28 
  59   55   44   43   34   35   43   37   23   45   39   23   42   37   33 
  46   42   41   41   42   44   33   32   28   28   23   17   34   30   21 
  32   31   29   32   32   30   33   32   30   31   28   23   33   33   21 
  33   33   23   31   31   23   28   25   20   29   26   21   34   29   23 
  36   32   20   36   30   14   44   35   20   38   42   15   36   44    3 
  36   29   19   99   98   80   90   84   62   86   71   50   78   64   61 
  73   73   65   73   77   54   67   65   42   61   59   60   59   55   69 
  61   61   59   62   71   50   58   75   56   55   76   61   59   76   57 
  48   59   43   53   58   61   53   55   50   61   58   49   67   59   56 
  64   55   50   63   60   43   59   61   40   52   54   43   46   41   45 
  56   50   60   66   58   69   36   30   32   44   40   37   48   46   47 
  39   38   46   38   37   43   39   40   42   38   36   39   35   31   20 
  40   34   34   36   33   24   34   32   37   36   35   30   39   34   30 
  35   31   19   27   22   18   22   16   18   25   21   20   36   36   26 
  25   26   10   22   24   10   34   36   25   33   20   14   35   27   16 
  37   28   29   31   19   21   68   80   56   65   67   53   66   62   53 
  67   68   54   56   68   56   52   66   66   61   68   74   60   70   69 
  66   71   90   59   63   75   55   64   61   59   69   71   53   56   65 
  63   54   57   73   54   56   59   59   67   54   59   55   58   68   57 
  49   60   54   48   57   52   59   67   52   54   58   43   47   47   45 
  47   45   48   54   51   60   63   61   64   34   33   28   41   41   39 
  38   41   32   33   39   27   48   53   56   35   37   36   43   41   42 
  36   29   36   38   33   29   41   38   33   36   37   23   29   28   24 
  35   29   31   29   31   30   36   39   32   45   47   36   32   32   20 
  34   31   22   34   29   23   40   36   27   34   28   16   48   34   21 
  43   46   29   39   48   29   32   28   19   57   61   64   55   70   63 
  60   66   62   58   68   60   52   70   54   63   74   60   69   86   76 
  79   81   76   83  105   93   89  108   86   75   95   84   50   86   82 
  51   77   66   63   67   53   59   66   58   67   66   46   61   77   64 
  43   68   62   53   62   59   69   62   54   66   58   45   49   51   40 
  43   48   44   42   56   39   50   61   47   51   52   44   43   39   36 
  42   37   34   50   51   46   60   68   57   50   62   48   34   50   39 
  40   48   37   42   35   25   33   19   16   33   23   22   33   35   30 
  36   44   29   24   32   11   33   28   32   31   38   22   33   32   12 
  39   30   25   33   33   33   35   31   28   36   27   18   42   43   29 
  39   34   12   47   46   44   45   41   30   35   28   20   63   69   57 
  61   75   58   57   64   57   59   69   61   62   81   59   69   80   63 
  61   78   68   77   94   84   78   95   79   81   93   91   78   91   81 
  71   88   80   61   76   71   57   64   57   61   67   57   59   59   57 
  61   66   69   66   72   70   62   62   50   57   59   37   61   68   50 
  53   59   49   62   58   57   45   43   48   53   51   52   50   49   45 
  52   51   49   52   50   51   45   41   42   59   56   51   51   49   37 
  34   38   39   31   25   25   40   32   30   34   39   33   31   40   35 
  28   29   24   32   25   17   38   35   18   37   37   27   42   45   28 
  44   43   23   42   39   22   37   37   27   39   36   31   36   29   19 
  38   37   16   35   44   27   34   34   22   25   31   17   34   43   24 
  57   65   52   57   69   57   55   62   54   65   72   64   77   90   80 
  92  102   93   93  109   98  104   93  101   89   83   95   83   84   89 
  82   93   95   83  106   88   75   98   82   66   78   78   70   82   58 
  66   61   58   67   70   61   63   69   57   62   62   52   58   55   48 
  61   67   57   60   67   60   52   52   54   45   46   41   56   56   56 
  58   58   58   54   55   49   59   62   45   49   51   30   52   53   37 
  39   39   29   44   43   38   34   37   30   33   32   27   21   11   12 
  26   20   24   39   40   44   34   34   36   36   25   29   34   36   22 
  32   30   18   27   28   12   31   33   11   41   37   25   45   39   39 
  33   30   25   30   25    6   39   29   20   39   31   28   36   32   20 
  39   40    9   62   73   57   68   78   67   71   75   84   78   85   93 
  89  101   91   98  110   98   99  113  113  102  112  101   84  108   74 
  83   89   63   88   87   69   83  102   83   85   94  109   85   86   81 
  72   87   66   67   67   69   72   83   66   71   83   63   73   75   70 
  63   63   63   65   71   61   73   81   70   70   70   70   59   72   81 
  54   64   66   60   64   63   52   53   48   64   64   62   56   60   59 
  47   56   51   45   58   49   43   40   31   33   28   22   33   30   23 
  27   28   23   31   33   32   39   34   38   36   26   34   42   32   40 
  38   39   33   38   30   27   37   37   27   37   41   27   40   32   29 
  33   27   31   23   23   23   34   25   20   37   26   22   24   22    9 
  37   30   22   47   40   24   65   76   72   78   86   88   82   91   90 
  94  104  103  106  116  115  103  118  111   92  108   95   85  108   82 
  81  109   94   82   91   86   93   94   86   89  104  109   88  104   78 
  93   90   99   74   83   92   70   86  101   64   79   82   68   75   67 
  66   68   54   61   73   53   68   86   64   67   76   59   77   69   58 
  53   68   49   65   77   67   77   82   78   60   63   54   72   77   55 
  73   81   57   48   59   45   25   35   34   37   41   40   42   40   41 
  44   35   36   40   30   29   38   27   23   38   29   20   36   34   22 
  32   38   24   35   35   33   33   26   18   34   36   23   32   38   28 
  34   29   26   30   25   21   23   24   19   34   22   26   39   38   18 
  31   20   28   35   32   23   36   39   22   73   90   72   92  100   85 
  93  103  102   97  109  107  101  114   96   92  114   91   85  101   91 
  77   86  103   78   91   99   70   87   71   76   92   91   81  104   94 
  83  101  105   96  111   78  101  106  100   89  106   98   77   96  100 
  66   82   81   66   75   56   66   74   50   69   77   64   67   70   59 
  71   69   46   67   63   62   76   75   73   67   69   66   57   59   56 
  62   64   59   57   57   55   49   45   46   36   30   34   51   32   34 
  41   40   36   27   34   27   32   35   26   31   32   18   29   32   15 
  39   35   23   41   26   21   34   31   26   36   33   18   44   47   26 
  36   40   26   31   31   19   33   32   14   34   32   17   40   30   28 
  25   22    7   33   27   27   31   31   23   38   40   37   84  105   90 
 102  112  101   98  114  101   94  110   99   90  102   92   79  101   89 
  77   94   86   79  107   92   81  107   82   84  102   78   89  104   71 
  91  102   94   86  101   72   86   94   81   92  101   74  104  107   78 
  89  107   91   61   86   80   67   78   70   77   73   64   83   76   70 
  79   81   70   65   72   54   76   73   56   87   84   77   68   68   70 
  55   57   54   52   56   39   56   58   36   58   55   40   52   44   41 
  39   42   25   44   42   30   35   32   25   33   35   24   25   23   11 
  30   19   13   38   29   30   24   29   32   35   30   24   25   25   13 
  31   32   18   26   27   11   30   35   15   40   42   21   42   34   21 
  37   30   20   27   29   15   41   50   49   36   37   29   37   35   20 
  87  110   94  101  112   98   88  105   99   87  103  100   97  108  104 
  90  112  109   85   99  110   98   96  101   82   97   94   93   99   97 
  89   95   93   74  107   80   78   98   96   80   81   83   81   93   81 
  84   80   68   85   94   75   84   98   85   75   76   78   64   60   51 
  72   72   44   75   79   56   80   80   80   69   80   66   72   78   74 
  65   66   70   63   63   65   54   56   45   49   53   36   33   40   22 
  38   44   30   39   42   31   33   38   31   31   33   28   47   37   35 
  39   24   19   30   21   14   29   30   25   23   31   33   41   31   30 
  26   28   27   35   34   32   32   30   17   31   39   18   40   40   28 
  49   38   34   52   45   35   62   50   50   49   33   33   42   31   27 
  55   48   29   86  106   94   91  104   94   94  104   95   98  105   97 
  92  101   96   91  103   99   98  113  110   89  110  105   84  104  102 
  82  103  106   82  101  107   83   99   98   77   87   76   83   86   79 
  84   79   83   83   79   80   78   83   86   73   75   62   68   70   48 
  59   65   61   62   60   71   69   61   59   76   77   59   76   82   80 
  67   76   71   73   77   60   57   57   45   55   53   66   42   38   53 
  40   36   37   37   37   35   45   42   27   46   43   38   34   34   22 
  24   23   21   26   23   16   26   24   25   34   36   25   31   33   30 
  35   39   38   36   38   35   36   37   31   34   31   22   39   35   24 
  42   38   26   43   37   25   56   50   36   63   48   55   49   48   43 
  37   39   25   37   41   24  101  106  109  103  113  112   99  114  107 
  93  110  100   88  106   92   90  108   94   95  113   97   90  113   93 
  91  110  106   89  103  103   87  100   83   95  108   78   91  105   80 
  86  100   87   74   90   80   79   84   78   80   84   70   81   86   66 
  88   94   68   88   92   67   83   84   79   72   72   74   69   70   56 
  80   92   80   79   81   70   70   77   61   64   72   59   59   54   60 
  53   52   58   39   46   39   54   54   46   52   54   41   50   53   32 
  41   44   27   29   28   23   28   26   13   29   24   21   38   35   30 
  41   39   24   31   32   34   36   36   36   34   33   29   45   42   33 
  53   49   37   41   35   19   42   37   18   66   61   42   59   56   49 
  46   31   26   46   46   34   42   59   43  104  113  110  107  117  109 
 105  115  104  100  112  102   93  108  101   85  104  102   79   99  100 
  97  103   91   95  104   99   85   96   98   78   94   91   83  104   87 
  79  102   76   76   97   78   75   92   84   71   85   85   79   81   76 
  79   87   74   85   95   70   88   89   58   89   92   73   77   89   79 
  73   77   63   79   88   67   66   81   58   70   76   64   67   68   63 
  58   68   59   56   61   54   47   46   41   44   55   41   48   56   43 
  41   45   44   40   40   38   36   34   21   37   32   29   37   30   22 
  39   31   28   40   30   41   39   36   53   46   44   49   35   33   21 
  42   40   15   53   50   19   46   42   17   57   51   37   71   66   60 
  57   47   38   53   64   48   51   51   39   47   40   32   99  115  112 
  97  108  104   97  103  101  100  105  101  101  107  103   95  106  100 
  92  104  100  105  102  109   97  102   95   86  100   87   84  103  101 
  83  102  106   71   92   87   72   90   76   79   96   78   83  102   83 
  88   97   92   84   91   83   76   83   67   73   73   61   84   87   76 
  84   95   87   80   87   97   75   89   63   75   85   61   76   86   78 
  66   74   76   67   73   61   68   76   63   56   67   59   58   66   55 
  50   58   60   41   45   28   43   45   24   39   38    7   39   38   20 
  40   39   21   39   33   33   42   35   29   37   33   34   44   41   36 
  37   33   22   39   34   15   41   36   16   46   41   22   56   53   36 
  53   49   37   47   48   30   51   44   26   49   54   31   55   63   40 
  99  111   99  102  117  112  103  118  121  103  117  120   98  108  109 
  95  100   96  102  103   97  109  124  105  102  112  111   94  101  107 
  93  103   92   88  101   73   80   96   70   82  100   88   86  105  101 
  97  111   96   97  111  111   94   99  102   88   88   88   79   84   78 
  89   96   78   93  101   78   88  101   91   89  103   80   99  108   89 
  95  104  103   91   98  104   76   82   72   79   89   78   63   75   73 
  64   75   69   55   64   63   47   47   45   53   45   56   45   40   34 
  39   39   31   38   42   25   38   37   42   41   38   45   36   33   16 
  38   35   18   44   38   24   45   39   27   43   37   25   42   38   26 
  48   46   33   51   49   36   55   38   54   55   45   53   66   58   56 
  63   63   51  101  105   90  117  125  110  126  138  126  124  137  128 
 110  122  120  100  111  113  104  115  119  107  117  116  108  119  115 
  99  110  102   90  102   92   80   91   83   88   97   94   99  108  103 
 104  112  101  105  118   90  104  123   93  107  113  103  107  105  110 
  95  105   94   98  105   87  103  105   92  105  118  101  102  108   96 
 102  115  105  110  115  118  117  118  123  104  117  110  104  115  109 
  97  102  105   83   99   99   56   68   56   42   44   39   44   40   31 
  39   36   21   36   36   38   36   43   35   35   44   27   36   40   25 
  45   42   23   43   38   19   44   39   20   42   37   18   45   42   27 
  50   48   36   50   49   44   62   62   60   67   58   51   69   61   58 
  61   57   54   50   51   46   94   98   97  105  108   99  113  117  102 
 111  120  101  104  117   99  100  117  101  101  119  107  107  106  111 
 112  117  110  105  116  108   99  113  116   91  104  112   97  106  105 
 107  110  103  114  113  108  110  115  108  110  119   98  106  112  100 
 105  106  108   98  104   92  102  107   85  108  111   92  118  123  103 
 126  137  129  133  133  133  132  138  134  125  136  128  138  140  139 
 122  131  130  116  132  131  102  111  118   76   96   97   51   60   59 
  44   39   45   40   35   42   42   46   32   44   51   43   47   51   54 
  44   44   46   46   41   21   40   35   16   42   36   20   40   36   24 
  47   44   35   55   55   45   56   57   49   63   66   57   65   67   54 
  67   68   62   57   63   59   70   72   69   84   95   81   89  102   93 
  97  112  107  100  113  106  105  113  102  108  111   92  102  104   80 
 114  122  109  112  117  110  105  111  101  114  121  103  114  122  101 
 107  113   99  105  113  102  117  125  110  119  123  122  120  119  114 
 108  115   99  102  112  103  109  109  111  123  124  116  126  133  117 
 134  128  132  144  149  145  155  164  163  159  165  155  159  165  151 
 155  164  163  150  160  161  149  159  158  125  138  146   86  113  124 
  59   71   83   49   51   37   46   47   29   45   51   25   40   47   39 
  42   44   41   40   33   51   51   43   41   40   33   25   46   43   24 
  57   55   30   56   56   32   57   60   43   65   68   61   69   73   74 
  72   79   72   76   82   78   73   78   72   70   78   67   97  106  105 
  98   97   93  101  102   94   97  102  105   92   98   96  101  106  100 
 101  102  107  102  111  108  104  115   99  106  114  103  106  111  104 
 106  112   98  105  113  102  105  115  107  108  120  100  108  116  105 
 113  121  108  119  127  112  121  128  112  128  135  117  140  145  125 
 144  149  129  153  156  139  165  167  162  179  180  174  186  186  176 
 185  185  175  183  184  178  180  184  183  168  178  180  149  159  168 
 112  123  127   63   71   74   50   52   47   44   46   32   45   45   35 
  43   41   44   39   35   36   44   41   34   50   58   47   45   46   30 
  55   48   30   58   51   33   67   71   48   88  104   78   97  110  100 
  99  105  117  100  107  113   96  106  108   99  111  107   71   84   75 
  94  112   98   94  107   89   99  102   83  104  107   98   98  112   97 
 102  116   99  104  109  103  107  118  112  105  116  108  105  115  104 
 111  118  110  113  119  115  106  115  110  102  114  104  105  117  105 
 109  115  113  121  126  122  136  141  135  145  150  144  158  161  154 
 169  172  165  173  176  169  180  181  176  186  188  183  193  194  186 
 196  196  186  195  195  185  193  194  186  190  195  191  182  190  192 
 166  177  181  124  138  149   81   94  103   57   65   67   46   51   45 
  42   47   43   42   43   48   45   46   51   50   51   46   57   59   56 
  54   55   37   63   63   37   82   84   63  108  110   97  131  132  126 
 137  143  143  133  148  155  124  131  137  111  121  123  104  116  116 
 102  117  112   86   95   92   77   87   76   80   94   77   97  109   99 
 110  112  107  111  121  113  114  134  132  125  136  132  117  127  129 
 117  127  119  130  137  130  141  145  154  139  146  152  140  151  145 
 147  157  159  150  152  151  156  158  155  165  167  164  174  176  173 
 186  188  185  197  197  195  198  198  198  199  199  201  199  200  194 
 198  199  191  196  196  184  197  197  185  197  199  188  195  198  191 
 189  195  191  177  187  186  130  150  149   90  108  108   60   75   68 
  55   69   52   56   67   51   49   56   48   51   59   48   51   60   39 
  47   61   61   57   52   48   75   62   53  109  109   97  140  152  138 
 159  167  154  167  172  166  165  173  176  152  162  164  133  144  148 
 126  140  143  111  127  127   89  102   85   86  104   80   91  104   78 
 110  115   95  120  127  109  119  132  115  120  138  126  126  136  111 
 126  134  111  133  142  115  152  158  132  166  170  156  165  171  157 
 162  170  149  161  170  153  177  179  166  182  184  171  189  191  178 
 196  198  185  204  206  195  208  209  201  205  206  200  200  201  196 
 201  201  193  198  198  188  195  195  183  197  198  184  199  199  187 
 197  200  189  193  198  191  185  192  185  150  167  174  113  130  138 
  78   96  100   66   81   74   65   75   66   57   63   59   58   65   57 
  61   70   53   58   64   64   72   67   47   99   99   65  138  150  126 
 170  179  178  189  181  192  189  187  192  182  197  192  175  183  185 
 164  174  176  147  160  166  123  138  145   87   96   79   87  100   80 
  92  100   79  108  110   89  121  124  107  119  127  114  117  129  115 
 133  134  120  144  146  124  159  158  138  170  168  155  179  177  164 
 183  180  173  180  179  174  178  179  165  181  180  162  191  190  172 
 201  200  182  205  206  188  206  207  191  205  205  193  204  204  194 
 201  202  194  202  200  188  199  197  185  197  195  182  199  197  184 
 200  201  187  200  202  189  199  202  193  193  196  189  172  183  189 
 130  144  155   89  106  113   66   81   78   67   74   66   67   69   64 
  64   67   58   59   68   47   70   71   65   90   83   67  133  131  110 
 165  178  160  186  196  185  204  197  187  197  195  182  186  200  185 
 189  195  193  182  191  190  152  163  167  139  154  161   92   92   82 
  94   95   89   96  103   95  106  112   98  122  119  112  130  129  127 
 132  142  133  144  141  124  163  162  132  180  175  153  184  178  162 
 188  183  163  194  188  174  195  191  182  196  194  173  196  190  176 
 202  196  182  204  201  186  207  203  191  205  203  191  203  203  193 
 204  203  198  200  199  194  196  192  180  194  192  177  194  192  177 
 197  195  180  197  198  184  198  198  186  200  200  192  197  196  191 
 181  192  186  135  149  152   96  114  116   77   92   85   75   83   68 
  67   69   56   65   68   49   67   76   49   76   75   54  113  104   71 
 167  161  125  188  193  170  189  199  191  199  199  199  193  192  187 
 187  193  183  191  192  186  190  195  191  179  188  187  169  180  182 
  98  110   86  111  119  104  112  113  105  111  115   98  111  124  106 
 121  129  116  134  131  112  143  139  130  167  163  151  191  185  173 
 200  193  183  204  197  191  207  199  196  203  198  194  200  196  187 
 205  197  186  205  197  186  204  198  184  207  203  191  209  205  194 
 207  204  195  202  202  194  191  190  185  186  183  166  188  185  168 
 190  188  173  196  194  181  198  196  184  197  194  185  201  198  193 
 200  197  192  181  191  192  142  159  169  105  125  136   85  103  105 
  70   79   76   55   56   51   65   68   59   75   84   67   94   74   50 
 138  128  101  183  187  164  194  200  188  192  192  182  196  188  175 
 189  190  176  185  196  188  198  196  184  198  198  190  191  196  190 
 176  185  182   96  104   89  105  107  104  112  117  120  126  139  129 
 135  147  137  149  151  148  159  160  146  174  173  155  186  184  171 
 197  195  174  202  200  177  206  202  191  207  203  192  205  204  184 
 203  201  186  204  195  180  203  196  180  202  195  177  205  200  181 
 204  201  184  202  200  185  196  197  183  185  185  173  179  174  155 
 180  177  158  187  184  167  196  194  181  198  196  184  195  192  185 
 198  195  190  200  196  193  183  196  186  155  175  176  109  134  138 
  86  109  103   76   88   76   70   73   62   78   85   69   65   79   54 
 117   96   67  163  152  122  196  191  169  200  200  190  202  201  197 
 198  199  191  194  195  189  190  190  192  200  194  182  199  197  185 
 190  191  183  183  190  183  102  113  107  125  125  117  146  146  138 
 148  155  147  147  155  142  153  155  133  170  163  134  184  178  154 
 199  183  160  197  178  171  201  195  171  202  197  168  195  178  162 
 179  165  138  172  171  143  187  172  151  191  175  124  182  178  133 
 190  189  168  202  194  171  200  195  175  198  196  183  193  182  164 
 181  177  178  185  180  174  189  183  171  193  187  175  200  193  187 
 200  196  193  197  198  193  200  203  196  183  197  200  151  163  177 
 106  120  123   86   99   89   68   79   73   68   74   72   80   83   72 
  85   87   66  119   98   79  165  147  109  203  191  175  199  201  196 
 196  202  198  198  198  200  196  193  184  190  192  178  190  188  173 
 183  184  168  189  190  176  188  190  177  115  125  117  137  138  130 
 157  158  152  166  168  165  164  169  163  161  161  149  163  158  139 
 163  154  115  167  160  105  169  166  125  160  165  125  146  146  110 
 144  129  110  139  124  103  135  132  113  128  129  123  149  137  121 
 159  149  122  172  165  137  193  178  157  191  186  166  184  191  173 
 189  191  177  188  187  183  183  180  171  183  180  163  191  185  169 
 197  193  182  198  195  188  197  198  190  203  206  195  183  191  193 
 145  156  150  104  114  113   83   96   89   72   84   70   72   81   78 
  71   76   79   72   80   59  122  109   64  170  157  105  206  198  179 
 199  202  193  193  201  186  194  195  187  192  189  180  183  184  179 
 185  186  170  178  179  163  184  185  171  194  196  183  143  150  142 
 166  169  158  184  185  179  190  190  192  187  186  191  171  171  169 
 155  155  145  131  129  130  122  107   84  122   99   85  121  110  108 
 132  139  145  147  160  179  156  169  188  164  176  200  143  170  191 
 150  159  174  137  139  136  141  135  113  173  154  122  184  173  141 
 179  181  157  182  183  167  186  188  177  182  183  169  186  185  167 
 196  193  176  200  197  182  199  197  185  197  199  186  198  202  188 
 179  185  183  139  145  145  104  113  108   84   96   82   77   89   77 
  80   91   83   74   85   71   76   88   66  122  114   68  170  160  107 
 204  197  178  196  202  192  194  202  187  198  199  191  196  193  184 
 185  186  181  181  179  166  184  182  169  189  187  174  191  191  179 
 152  158  148  177  183  169  194  197  188  203  199  200  199  194  198 
 183  183  181  163  169  159  125  131  131  105  105  105  110  113  106 
 139  153  136  170  197  182  180  207  198  178  197  195  170  178  189 
 160  186  185  165  186  177  155  174  181  124  133  142  138  123  100 
 167  153  118  172  166  150  185  181  170  179  183  169  184  186  172 
 192  190  175  197  195  180  198  196  183  200  200  188  202  204  193 
 196  199  188  170  179  184  125  134  143   95  106  100   84   95   78 
  83   93   82   95  104   87   95  106   76   93  104   74  122  114   95 
 167  159  120  200  194  178  193  198  192  192  199  192  193  193  193 
 189  186  177  177  179  165  183  181  168  189  187  174  189  187  172 
 187  185  170  166  169  160  189  193  178  201  203  190  206  203  198 
 202  197  194  193  193  183  180  184  167  135  158  138  103  115  115 
 110  115   93  162  168  130  190  200  189  182  197  202  177  191  192 
 164  172  174  145  134  114  178  182  159  168  194  207  128  150  189 
 110  109  105  133  126   80  167  170  123  172  176  141  175  178  161 
 184  185  171  195  193  181  202  198  187  201  199  187  203  203  193 
 204  207  200  191  196  190  157  171  182  115  130  123   91  104   95 
  84   94   85   76   85   66   83   88   68   95   98   79   91   96   66 
 116  107   90  161  153  116  195  189  173  195  198  191  192  199  192 
 191  189  190  189  186  177  179  183  169  184  182  169  180  178  163 
 184  181  164  193  190  171  166  167  159  189  190  174  201  199  184 
 206  203  194  198  198  190  195  196  182  187  189  168  172  173  167 
 142  134  155  112  104   93  147  146  102  185  196  164  176  191  170 
 141  145  122  113   99   64  123   98   58  170  167  126  174  201  184 
 135  164  178   96   98   97  110  103   59  163  160  115  181  171  162 
 177  176  155  186  183  166  195  191  180  205  201  192  206  203  194 
 203  204  196  198  203  199  182  188  188  139  159  158  104  122  108 
  88  102   85   84   94   83   74   80   68   77   79   66   91   91   79 
  87   87   77  116  111   71  164  156  107  200  192  173  199  201  190 
 192  199  181  187  187  177  184  184  174  176  181  177  172  170  155 
 172  171  153  186  184  163  203  198  176  169  171  160  194  191  174 
 204  201  186  209  209  199  201  202  194  200  197  188  198  190  177 
 190  195  175  161  168  184  110  116  128  124  115  108  145  130   97 
 139  126   92  118  103   96  126  109   99  134  116  102  141  135   99 
 151  165  130  118  132  119   99   94   75  118  107   62  135  127   81 
 166  147  132  178  173  143  189  183  161  195  187  174  201  194  184 
 203  199  188  202  204  193  197  202  198  178  186  188  135  151  148 
  94  109  102   80   93   73   77   85   70   76   78   77   78   81   72 
  83   86   69   79   81   80  118  108   72  167  154  109  200  189  171 
 198  198  188  192  196  179  184  184  174  181  181  171  169  175  173 
 162  161  143  167  164  145  176  171  149  181  175  149  178  180  167 
 204  197  181  209  201  188  211  212  204  205  207  202  207  204  199 
 211  198  192  204  200  199  192  198  196  149  155  155  125  119  123 
 123  118   96  160  161  143  152  146  160  126  113  104  134  121  112 
 132  117   74  119  109   73  106   96   87  102   85   67  100   91   58 
 116  116   80  148  141   95  164  158  122  187  180  152  197  188  171 
 200  192  179  203  200  185  206  208  195  199  206  199  175  185  184 
 130  139  154   99  110  102   93  103   92   83   88   84   77   83   73 
  78   85   69   85   91   77   98  106   93  122  105   95  169  152  122 
 200  186  173  198  195  190  194  195  189  187  185  186  181  183  172 
 166  174  161  160  159  139  150  148  127  140  136  111  139  134  105 
 195  195  183  200  196  184  211  205  191  219  213  199  213  209  198 
 211  208  201  206  207  202  206  207  189  205  205  205  186  185  201 
 149  151  163  123  129  117  140  149  118  117  126   95  118  126  102 
 116  106  107   98   93   73  103  103   69  113  109   84  100   91   76 
  93   82   64  113  106   77  142  138  100  166  150  124  175  170  140 
 187  187  159  200  198  177  212  201  181  213  202  182  198  198  188 
 174  183  188  134  150  147  108  121  127  103  112  121   91   96   99 
  82   88   78   86   90   75   87   93   79   89   95   83  125  115   90 
 166  161  132  199  197  174  196  196  184  193  196  189  186  189  180 
 181  184  175  163  165  164  151  144  128  116  105   85  111   99   77 
 107  100   71  190  190  180  198  196  184  214  208  196  218  212  200 
 215  211  200  217  214  207  210  211  205  209  208  190  209  210  194 
 197  199  188  186  188  187  160  160  168  140  140  150  112  113  117 
 106  108  105  103  101  102  102  105   84  106  110   85  114  111  106 
 114  104  103  104   93   71  110  102   65  137  133   96  162  151  121 
 172  164  141  181  177  152  194  189  160  206  196  171  206  196  184 
 193  192  187  176  183  176  148  162  149  134  148  135  116  127  121 
  95  104  101   80   87   79   84   92   69   85   92   61  102  106   79 
 127  118   87  162  156  120  187  184  153  192  191  171  195  197  183 
 183  187  170  171  175  160  141  144  135  103   97   83   97   97   71 
 108  101   85  118   95   87  184  183  178  200  197  188  216  212  201 
 216  212  200  215  211  200  221  218  209  214  214  206  218  212  196 
 214  212  191  201  200  179  197  198  184  192  191  189  181  179  184 
 168  167  165  160  160  150  151  155  156  141  145  144  118  124  114 
 103  106   87  108  103   81  111  100   80  121  110   88  146  139  113 
 159  152  126  168  160  137  177  170  142  190  183  154  203  197  175 
 204  200  191  195  194  189  184  187  176  155  166  152  131  142  136 
 111  121  120   94  105  101   68   77   72   85   87   82   94   95   77 
 110  112   75  139  128  106  172  165  137  189  183  161  190  186  175 
 187  186  181  169  170  162  153  156  149  113  114  116   97   84   65 
 103  110   68   94   93   62   92   66   53  190  189  185  206  203  196 
 218  214  205  213  209  198  212  210  198  219  217  205  214  214  202 
 216  207  202  217  210  200  217  214  197  205  202  185  200  198  185 
 197  195  182  191  188  169  189  187  162  181  181  171  171  174  165 
 154  156  151  128  127  123  114  108   96  124  117   91  143  136  108 
 157  150  131  161  155  139  166  159  131  178  167  135  192  181  159 
 200  194  180  200  198  186  191  191  179  179  179  169  150  154  157 
 128  136  125  101  113   99   85   95   94   73   81   84   81   84   75 
  88   87   66  110  106   81  143  132  104  177  168  135  194  189  159 
 190  185  166  178  176  161  156  159  140  139  143  128  101  104   97 
 107   83   57  124  120   72  110  107   72  102   84   72  204  203  201 
 210  209  204  213  210  203  210  207  198  212  210  198  218  216  204 
 215  215  203  221  210  216  217  210  204  219  213  199  209  205  193 
 206  201  197  198  192  192  198  191  185  201  195  181  203  197  175 
 192  186  172  180  175  169  157  150  144  140  131  116  158  150  127 
 180  174  152  181  175  159  162  158  146  163  157  131  179  170  141 
 197  186  168  203  196  186  201  201  189  191  193  180  176  176  166 
 142  145  136  119  125  115  106  115   96   90  103   73   89   99   74 
  82   84   70   93   90   71  113  109   74  141  130  102  168  159  126 
 192  185  156  188  183  163  171  169  154  147  150  131  129  133  118 
  97  102   96   96   72   60  114   97   53  120  111   54  117  111   59 
 210  209  207  211  210  206  210  209  204  212  212  204  217  214  207 
 218  215  206  217  214  205  223  217  205  221  214  204  213  209  200 
 218  214  205  220  216  205  211  207  195  214  207  197  208  201  193 
 212  200  176  199  188  182  186  179  171  171  165  141  169  162  133 
 184  175  160  189  180  171  180  177  160  179  176  157  175  172  157 
 188  182  166  202  197  177  206  200  184  201  198  191  185  186  180 
 166  170  155  143  144  146  113  119  105  109  117   94   98  106   85 
  97  102   82   91   93   69  108  103   81  113  106   90  132  121  103 
 153  143  118  182  174  151  184  178  166  170  167  158  146  148  137 
 132  137  131  112  117  120   86   75   53   83   69   30   98   84   47 
 100   91   60  211  210  206  214  213  209  217  216  212  219  218  213 
 219  218  213  219  216  209  219  216  209  217  215  194  221  217  206 
 215  211  208  215  212  205  212  211  191  212  212  184  216  214  191 
 216  210  196  210  204  182  205  202  185  198  196  184  191  187  178 
 193  184  175  194  184  172  189  182  163  190  185  163  196  191  172 
 189  187  175  190  191  183  197  195  180  202  196  182  197  190  182 
 173  174  168  153  163  152  129  135  125  116  120  119  106  108  105 
  94   96   85  103  101   86  106  103   88  116  110   96  123  117  101 
 130  123   95  151  145  111  176  171  139  182  177  155  174  173  155 
 154  159  139  140  149  132  106  117  109   75   66   61   69   67   54 
  78   72   72   75   64   72  217  216  212  220  221  216  224  225  220 
 222  221  217  219  218  213  222  219  214  224  221  214  224  221  214 
 218  215  208  219  218  213  219  218  214  216  215  211  224  221  216 
 215  211  200  219  216  199  214  215  201  208  210  205  203  206  197 
 202  204  182  208  203  183  201  190  184  191  182  173  196  192  165 
 211  203  192  200  202  188  193  199  189  191  192  187  199  190  181 
 190  183  167  160  164  150  140  155  152  124  134  109  119  126  110 
 116  117  111  107  104   99   95   92   77  110  106   79  121  117   88 
 118  116   91  127  119  100  152  145  119  169  163  139  179  173  159 
 184  182  170  172  176  162  149  159  151   91  102  104   99   89   62 
 121  131  104  128  143  140  120  118  131  227  223  220  231  227  224 
 233  229  226  230  226  223  227  223  220  226  222  219  224  220  217 
 222  217  211  223  218  212  224  219  213  223  218  212  220  216  207 
 219  215  206  219  215  206  221  217  206  215  214  209  216  213  206 
 213  210  201  210  207  198  205  200  194  199  192  184  197  191  179 
 204  199  180  205  198  188  203  196  186  198  191  181  196  192  181 
 185  181  170  168  166  154  162  160  148  150  148  136  132  141  124 
 126  133  125  112  123  109  106  117  103  103  108  101  105  107   96 
 116  113   98  122  114  103  132  124  111  147  145  120  159  156  121 
 177  171  137  188  188  162  174  185  169  143  153  152  103  106  113 
 119  119   91  151  150  129  168  169  153  173  175  162  231  227  224 
 234  230  227  235  231  228  232  228  225  230  226  223  228  224  221 
 225  221  218  227  222  216  228  223  217  228  223  217  226  221  215 
 225  221  212  223  219  210  224  220  211  224  220  211  220  219  214 
 221  218  211  217  214  205  213  210  201  208  203  197  201  196  190 
 202  196  184  207  201  185  199  196  179  197  194  177  188  185  168 
 183  180  163  174  173  155  167  166  148  160  161  143  145  146  128 
 145  147  142  132  140  119  116  123  115  113  119  115  108  116   95 
 102  105   88  111  107   98  125  121   96  136  131  109  138  137  109 
 145  141  112  167  160  134  184  179  160  176  182  168  158  166  155 
 131  131  123  146  142  113  169  167  144  180  178  163  182  183  169 
 229  225  222  232  228  225  233  229  226  232  228  225  231  227  224 
 229  225  222  226  222  219  228  223  217  228  223  217  227  222  216 
 226  221  215  226  222  213  225  221  212  225  221  212  225  221  212 
 222  221  216  223  220  213  219  216  207  214  211  202  211  206  200 
 205  200  194  202  198  186  204  198  182  192  189  182  193  190  183 
 189  186  179  189  186  179  181  181  173  173  173  165  163  164  156 
 145  146  138  141  142  126  133  133  133  124  128  114  122  127  104 
 112  115  106   96   99   80  102  103   69  117  114   95  124  120  108 
 128  128  104  136  133  100  152  143  110  167  162  133  174  176  154 
 170  168  153  151  141  132  172  165  136  188  182  158  188  182  166 
 185  182  167 