P3
# issu de chien.ppm
21 21
255
 114  100   91  113  100   83  130  113   97  152  139  133  148  148  138 
 149  150  136  157  148  143  158  150  147  155  155  143  143  152  125 
 127  135  111   90   92   81   56   57   43   61   64   53   52   56   68 
  55   57   33   64   66   55   63   66   59   49   55   41   37   42   36 
  42   43   48  109  112   85  109  107   94  126  120  108  143  146  117 
 139  152  126  140  150  139  146  148  135  151  154  137  146  153  137 
 139  151  131  122  129  121   75   76   81   41   43   40   57   67   58 
  63   74   80   76   65   61   68   58   66   54   53   58   45   50   43 
  52   54   49   59   55   56  110  110   98  105  102   83  119  114   84 
 142  140  115  140  146  132  144  147  140  153  149  140  150  148  135 
 139  139  127  129  132  113  109  112   93   80   82   71   65   70   50 
  72   87   58   67   85   69   57   70   52   53   67   41   46   56   45 
  42   47   40   52   57   35   56   59   50  114  109  115  107  101   87 
 119  111   74  147  139  116  146  145  140  139  138  133  145  136  129 
 125  138  118  116  124  109  104  107   86   88   86   63   77   68   53 
  70   59   39   69   60   31   60   52   33   49   65   55   59   66   72 
  56   54   55   48   41   35   47   36   42   49   41   39  112  118  108 
 108  106  107  115  107   94  133  133   99  134  142  119  123  129  117 
 117  117   89  113  112   82   82   76   64   62   53   46   57   48   43 
  57   50   57   58   56   57   65   67   54   64   67   56   65   74   55 
  66   72   62   51   58   40   48   51   32   47   47   39   50   48   35 
 108  109  101  109  107   86  113  105   66  112  110   62  108  113   81 
  97  101   84   78   75   60   65   70   47   50   51   46   57   56   51 
  61   65   51   52   58   54   49   60   56   61   71   60   59   67   56 
  52   67   60   48   64   37   43   54   40   51   56   59   52   58   48 
  53   55   50   99   98   80   90   84   62   86   71   50   78   64   61 
  73   73   65   73   77   54   67   65   42   61   59   60   59   55   69 
  61   61   59   62   71   50   58   75   56   55   76   61   59   76   57 
  48   59   43   53   58   61   53   55   50   61   58   49   67   59   56 
  64   55   50   63   60   43   68   80   56   65   67   53   66   62   53 
  67   68   54   56   68   56   52   66   66   61   68   74   60   70   69 
  66   71   90   59   63   75   55   64   61   59   69   71   53   56   65 
  63   54   57   73   54   56   59   59   67   54   59   55   58   68   57 
  49   60   54   48   57   52   59   67   52   57   61   64   55   70   63 
  60   66   62   58   68   60   52   70   54   63   74   60   69   86   76 
  79   81   76   83  105   93   89  108   86   75   95   84   50   86   82 
  51   77   66   63   67   53   59   66   58   67   66   46   61   77   64 
  43   68   62   53   62   59   69   62   54   66   58   45   63   69   57 
  61   75   58   57   64   57   59   69   61   62   81   59   69   80   63 
  61   78   68   77   94   84   78   95   79   81   93   91   78   91   81 
  71   88   80   61   76   71   57   64   57   61   67   57   59   59   57 
  61   66   69   66   72   70   62   62   50   57   59   37   61   68   50 
  57   65   52   57   69   57   55   62   54   65   72   64   77   90   80 
  92  102   93   93  109   98  104   93  101   89   83   95   83   84   89 
  82   93   95   83  106   88   75   98   82   66   78   78   70   82   58 
  66   61   58   67   70   61   63   69   57   62   62   52   58   55   48 
  61   67   57   62   73   57   68   78   67   71   75   84   78   85   93 
  89  101   91   98  110   98   99  113  113  102  112  101   84  108   74 
  83   89   63   88   87   69   83  102   83   85   94  109   85   86   81 
  72   87   66   67   67   69   72   83   66   71   83   63   73   75   70 
  63   63   63   65   71   61   65   76   72   78   86   88   82   91   90 
  94  104  103  106  116  115  103  118  111   92  108   95   85  108   82 
  81  109   94   82   91   86   93   94   86   89  104  109   88  104   78 
  93   90   99   74   83   92   70   86  101   64   79   82   68   75   67 
  66   68   54   61   73   53   68   86   64   73   90   72   92  100   85 
  93  103  102   97  109  107  101  114   96   92  114   91   85  101   91 
  77   86  103   78   91   99   70   87   71   76   92   91   81  104   94 
  83  101  105   96  111   78  101  106  100   89  106   98   77   96  100 
  66   82   81   66   75   56   66   74   50   69   77   64   84  105   90 
 102  112  101   98  114  101   94  110   99   90  102   92   79  101   89 
  77   94   86   79  107   92   81  107   82   84  102   78   89  104   71 
  91  102   94   86  101   72   86   94   81   92  101   74  104  107   78 
  89  107   91   61   86   80   67   78   70   77   73   64   83   76   70 
  87  110   94  101  112   98   88  105   99   87  103  100   97  108  104 
  90  112  109   85   99  110   98   96  101   82   97   94   93   99   97 
  89   95   93   74  107   80   78   98   96   80   81   83   81   93   81 
  84   80   68   85   94   75   84   98   85   75   76   78   64   60   51 
  72   72   44   86  106   94   91  104   94   94  104   95   98  105   97 
  92  101   96   91  103   99   98  113  110   89  110  105   84  104  102 
  82  103  106   82  101  107   83   99   98   77   87   76   83   86   79 
  84   79   83   83   79   80   78   83   86   73   75   62   68   70   48 
  59   65   61   62   60   71  101  106  109  103  113  112   99  114  107 
  93  110  100   88  106   92   90  108   94   95  113   97   90  113   93 
  91  110  106   89  103  103   87  100   83   95  108   78   91  105   80 
  86  100   87   74   90   80   79   84   78   80   84   70   81   86   66 
  88   94   68   88   92   67   83   84   79  104  113  110  107  117  109 
 105  115  104  100  112  102   93  108  101   85  104  102   79   99  100 
  97  103   91   95  104   99   85   96   98   78   94   91   83  104   87 
  79  102   76   76   97   78   75   92   84   71   85   85   79   81   76 
  79   87   74   85   95   70   88   89   58   89   92   73   99  115  112 
  97  108  104   97  103  101  100  105  101  101  107  103   95  106  100 
  92  104  100  105  102  109   97  102   95   86  100   87   84  103  101 
  83  102  106   71   92   87   72   90   76   79   96   78   83  102   83 
  88   97   92   84   91   83   76   83   67   73   73   61   84   87   76 
  99  111   99  102  117  112  103  118  121  103  117  120   98  108  109 
  95  100   96  102  103   97  109  124  105  102  112  111   94  101  107 
  93  103   92   88  101   73   80   96   70   82  100   88   86  105  101 
  97  111   96   97  111  111   94   99  102   88   88   88   79   84   78 
  89   96   78 